<svg width="16" height="16" viewBox="0 0 16 16" fill="none" xmlns="http://www.w3.org/2000/svg">
<path fill-rule="evenodd" clip-rule="evenodd" d="M1.99996 3.33341V14.0001H14V3.33341H1.99996ZM0.666626 2.73342C0.666626 2.32841 0.994948 2.00008 1.39996 2.00008H14.6C15.005 2.00008 15.3333 2.32841 15.3333 2.73341V14.6001C15.3333 15.0051 15.005 15.3334 14.6 15.3334H1.39996C0.99495 15.3334 0.666626 15.0051 0.666626 14.6001V2.73342Z" fill="#5B5555"/>
<path fill-rule="evenodd" clip-rule="evenodd" d="M10.4559 8.34706C10.7245 8.59888 10.7381 9.02077 10.4863 9.28938L8.03495 11.9042C7.74523 12.2132 7.25469 12.2132 6.96497 11.9042L5.5136 10.356C5.26178 10.0874 5.27539 9.66554 5.544 9.41372C5.81261 9.1619 6.2345 9.17551 6.48632 9.44412L7.49996 10.5253L9.5136 8.37745C9.76542 8.10885 10.1873 8.09524 10.4559 8.34706Z" fill="#5B5555"/>
<path fill-rule="evenodd" clip-rule="evenodd" d="M4.33329 0.666748C4.70148 0.666748 4.99996 0.965225 4.99996 1.33341V3.33341C4.99996 3.7016 4.70148 4.00008 4.33329 4.00008C3.9651 4.00008 3.66663 3.7016 3.66663 3.33341V1.33341C3.66663 0.965225 3.9651 0.666748 4.33329 0.666748Z" fill="#5B5555"/>
<path fill-rule="evenodd" clip-rule="evenodd" d="M11.6666 0.666748C12.0348 0.666748 12.3333 0.965225 12.3333 1.33341V3.33341C12.3333 3.7016 12.0348 4.00008 11.6666 4.00008C11.2984 4.00008 11 3.7016 11 3.33341V1.33341C11 0.965225 11.2984 0.666748 11.6666 0.666748Z" fill="#5B5555"/>
<path fill-rule="evenodd" clip-rule="evenodd" d="M0.666626 5.66675C0.666626 5.29856 0.965103 5.00008 1.33329 5.00008H14.6666C15.0348 5.00008 15.3333 5.29856 15.3333 5.66675C15.3333 6.03494 15.0348 6.33342 14.6666 6.33342H1.33329C0.965103 6.33342 0.666626 6.03494 0.666626 5.66675Z" fill="#5B5555"/>
</svg>
