<svg width="15" height="14" viewBox="0 0 15 14" fill="none" xmlns="http://www.w3.org/2000/svg">
<path fill-rule="evenodd" clip-rule="evenodd" d="M0.699951 7.00003C0.699951 6.55821 1.05812 6.20003 1.49995 6.20003H13.5C13.9418 6.20003 14.3 6.55821 14.3 7.00003C14.3 7.44186 13.9418 7.80003 13.5 7.80003H1.49995C1.05812 7.80003 0.699951 7.44186 0.699951 7.00003Z" fill="#5B5555"/>
<path fill-rule="evenodd" clip-rule="evenodd" d="M7.39897 1.10101C7.71139 1.41343 7.71139 1.91997 7.39897 2.23238L2.63132 7.00003L7.39897 11.7677C7.71139 12.0801 7.71139 12.5866 7.39897 12.8991C7.08655 13.2115 6.58002 13.2115 6.2676 12.8991L0.934266 7.56572C0.621846 7.2533 0.621846 6.74677 0.934266 6.43435L6.2676 1.10101C6.58002 0.788594 7.08655 0.788594 7.39897 1.10101Z" fill="#5B5555"/>
</svg>
