<svg width="15" height="14" viewBox="0 0 15 14" fill="none" xmlns="http://www.w3.org/2000/svg">
<path fill-rule="evenodd" clip-rule="evenodd" d="M0.699951 7.00003C0.699951 6.55821 1.05812 6.20003 1.49995 6.20003H13.5C13.9418 6.20003 14.3 6.55821 14.3 7.00003C14.3 7.44186 13.9418 7.80003 13.5 7.80003H1.49995C1.05812 7.80003 0.699951 7.44186 0.699951 7.00003Z" fill="#5B5555"/>
<path fill-rule="evenodd" clip-rule="evenodd" d="M7.60093 1.10101C7.91335 0.788594 8.41988 0.788594 8.7323 1.10101L14.0656 6.43435C14.3781 6.74677 14.3781 7.2533 14.0656 7.56572L8.7323 12.8991C8.41988 13.2115 7.91335 13.2115 7.60093 12.8991C7.28851 12.5866 7.28851 12.0801 7.60093 11.7677L12.3686 7.00003L7.60093 2.23238C7.28851 1.91997 7.28851 1.41343 7.60093 1.10101Z" fill="#5B5555"/>
</svg>
