<svg width="16" height="16" viewBox="0 0 16 16" fill="none" xmlns="http://www.w3.org/2000/svg">
<path fill-rule="evenodd" clip-rule="evenodd" d="M5.99996 2.00008C3.79082 2.00008 1.99996 3.79094 1.99996 6.00008C1.99996 8.20922 3.79082 10.0001 5.99996 10.0001C8.2091 10.0001 9.99996 8.20922 9.99996 6.00008C9.99996 3.79094 8.2091 2.00008 5.99996 2.00008ZM0.666626 6.00008C0.666626 3.05456 3.05444 0.666748 5.99996 0.666748C8.94548 0.666748 11.3333 3.05456 11.3333 6.00008C11.3333 8.9456 8.94548 11.3334 5.99996 11.3334C3.05444 11.3334 0.666626 8.9456 0.666626 6.00008Z" fill="#B6B3B3"/>
<path d="M9.33329 10.0667C9.33329 9.66174 9.66162 9.33342 10.0666 9.33342H11.2963C11.4904 9.33342 11.6766 9.41039 11.8141 9.54747L15.0897 12.8138C15.3785 13.1018 15.3768 13.5702 15.0858 13.8561L13.8242 15.0958C13.5364 15.3786 13.0742 15.3758 12.7898 15.0894L9.54624 11.8226C9.40984 11.6853 9.33329 11.4995 9.33329 11.3059V10.0667Z" fill="#B6B3B3"/>
</svg>
